# xmcd
#
# Track frame offsets:
#	150
#	13120
#	37380
#	52987
#	79000
#	92930
#	110292
#	133747
#	146810
#	165205
#	183457
#	198927
#	213215
#	233765
#
# Disc length: 3364 seconds
#
# Revision: 2
# Processed by: cddbd v1.5.2PL0 Copyright (c) Steve Scherf et al.
# Submitted via: EasyCDDAExtractor 11.5.3.1
#
DISCID=bd0d220e
DTITLE=Holger Wemhoffs Filmmusik (Klassik Radio) - Die größten Soundtracks all
DTITLE=er Zeiten [CD1]
DYEAR=2005
DGENRE=Filmmusik
TTITLE0=The Imperial March from "The Empire Strikes Back"
TTITLE1=Main Themes from "Jurassic Park"
TTITLE2=Main Title from "Shakespear in Love"
TTITLE3=Themes from "Crouching Tiger, Hidden Dragon"
TTITLE4=Main Title from "The Last of the Mohicans"
TTITLE5=Theme from "The Godfather"
TTITLE6=Unchained Melody from "Ghost"
TTITLE7=Theme from "Goldfinger"
TTITLE8=We're Losing Him from "Somewhere in Time"
TTITLE9=Music from "Space Camp"
TTITLE10=Opening and Closing Titles from "Henry V"
TTITLE11=Theme from "The Thorn Birds"
TTITLE12=Suite from "Moonwalker"
TTITLE13=The Time of Your Life from "A Bug's Life"
EXTD=
EXTT0=
EXTT1=
EXTT2=
EXTT3=
EXTT4=
EXTT5=
EXTT6=
EXTT7=
EXTT8=
EXTT9=
EXTT10=
EXTT11=
EXTT12=
EXTT13=
PLAYORDER=
